<svg xmlns="http://www.w3.org/2000/svg" width="26" height="26.157" viewBox="0 0 26 26.157">
  <path id="Path_52" data-name="Path 52" d="M26.138,2H3.983A1.9,1.9,0,0,0,2.06,3.87V26.287a1.9,1.9,0,0,0,1.923,1.87H26.138a1.9,1.9,0,0,0,1.923-1.87V3.87A1.9,1.9,0,0,0,26.138,2ZM9.946,23.893H6.023V12.123H9.946ZM7.985,10.475h0a2.04,2.04,0,1,1,0-4.08,2.053,2.053,0,1,1,0,4.08ZM24.1,23.893H20.174V17.577c0-1.582-.562-2.616-1.988-2.616a2.158,2.158,0,0,0-2.014,1.426,2.616,2.616,0,0,0-.131.955V23.88H12.117V12.11h3.924v1.661a3.924,3.924,0,0,1,3.544-1.962c2.616,0,4.512,1.687,4.512,5.31Z" transform="translate(-2.06 -2)"/>
</svg>
